<mxfile host="app.diagrams.net" modified="2023-08-20T12:02:30.022Z" agent="Mozilla/5.0 (Windows NT 10.0; Win64; x64) AppleWebKit/537.36 (KHTML, like Gecko) Chrome/115.0.0.0 Safari/537.36 Edg/115.0.1901.203" etag="V6s-DiUrz3YVEPHGxu3v" version="21.6.8" type="github">
  <diagram name="Page-1" id="2MfmUbxcLfMK1NjeN6Jw">
    <mxGraphModel dx="1358" dy="603" grid="1" gridSize="10" guides="1" tooltips="1" connect="1" arrows="1" fold="1" page="1" pageScale="1" pageWidth="827" pageHeight="1169" math="0" shadow="0">
      <root>
        <mxCell id="0" />
        <mxCell id="1" parent="0" />
        <mxCell id="7TI13dxoVBn9YQDUtoPk-1" value="" style="rounded=0;whiteSpace=wrap;html=1;" vertex="1" parent="1">
          <mxGeometry x="231" y="150" width="366" height="60" as="geometry" />
        </mxCell>
        <mxCell id="7TI13dxoVBn9YQDUtoPk-2" value="Users" style="text;html=1;strokeColor=none;fillColor=none;align=center;verticalAlign=middle;whiteSpace=wrap;rounded=0;" vertex="1" parent="1">
          <mxGeometry x="254" y="165" width="60" height="30" as="geometry" />
        </mxCell>
        <mxCell id="7TI13dxoVBn9YQDUtoPk-4" value="Artists/ Music distributors" style="text;html=1;strokeColor=none;fillColor=none;align=center;verticalAlign=middle;whiteSpace=wrap;rounded=0;" vertex="1" parent="1">
          <mxGeometry x="367.5" y="165" width="100" height="30" as="geometry" />
        </mxCell>
        <mxCell id="7TI13dxoVBn9YQDUtoPk-5" value="Admin" style="text;html=1;strokeColor=none;fillColor=none;align=center;verticalAlign=middle;whiteSpace=wrap;rounded=0;" vertex="1" parent="1">
          <mxGeometry x="514" y="165" width="60" height="30" as="geometry" />
        </mxCell>
        <mxCell id="7TI13dxoVBn9YQDUtoPk-6" value="profile data" style="shape=cylinder3;whiteSpace=wrap;html=1;boundedLbl=1;backgroundOutline=1;size=15;" vertex="1" parent="1">
          <mxGeometry x="242.5" y="430" width="70" height="80" as="geometry" />
        </mxCell>
        <mxCell id="7TI13dxoVBn9YQDUtoPk-7" value="music data" style="shape=cylinder3;whiteSpace=wrap;html=1;boundedLbl=1;backgroundOutline=1;size=15;" vertex="1" parent="1">
          <mxGeometry x="382.5" y="430" width="70" height="80" as="geometry" />
        </mxCell>
        <mxCell id="7TI13dxoVBn9YQDUtoPk-8" value="purchases" style="shape=cylinder3;whiteSpace=wrap;html=1;boundedLbl=1;backgroundOutline=1;size=15;" vertex="1" parent="1">
          <mxGeometry x="522.5" y="430" width="70" height="80" as="geometry" />
        </mxCell>
        <mxCell id="7TI13dxoVBn9YQDUtoPk-9" value="" style="rounded=0;whiteSpace=wrap;html=1;" vertex="1" parent="1">
          <mxGeometry x="214.25" y="240" width="406.5" height="60" as="geometry" />
        </mxCell>
        <mxCell id="7TI13dxoVBn9YQDUtoPk-10" value="login/ registration" style="text;html=1;strokeColor=none;fillColor=none;align=center;verticalAlign=middle;whiteSpace=wrap;rounded=0;" vertex="1" parent="1">
          <mxGeometry x="231" y="255" width="60" height="30" as="geometry" />
        </mxCell>
        <mxCell id="7TI13dxoVBn9YQDUtoPk-15" value="streaming engine (songs/playlists/albums)" style="text;html=1;strokeColor=none;fillColor=none;align=center;verticalAlign=middle;whiteSpace=wrap;rounded=0;" vertex="1" parent="1">
          <mxGeometry x="252.5" y="340" width="60" height="30" as="geometry" />
        </mxCell>
        <mxCell id="7TI13dxoVBn9YQDUtoPk-17" value="" style="rounded=0;whiteSpace=wrap;html=1;" vertex="1" parent="1">
          <mxGeometry x="204.75" y="340" width="425.5" height="60" as="geometry" />
        </mxCell>
        <mxCell id="7TI13dxoVBn9YQDUtoPk-18" value="User data encryption" style="text;html=1;strokeColor=none;fillColor=none;align=center;verticalAlign=middle;whiteSpace=wrap;rounded=0;" vertex="1" parent="1">
          <mxGeometry x="224.25" y="355" width="60" height="30" as="geometry" />
        </mxCell>
        <mxCell id="7TI13dxoVBn9YQDUtoPk-19" value="Payment manager" style="text;html=1;strokeColor=none;fillColor=none;align=center;verticalAlign=middle;whiteSpace=wrap;rounded=0;" vertex="1" parent="1">
          <mxGeometry x="550.25" y="355" width="60" height="30" as="geometry" />
        </mxCell>
        <mxCell id="7TI13dxoVBn9YQDUtoPk-23" value="report generator" style="text;html=1;strokeColor=none;fillColor=none;align=center;verticalAlign=middle;whiteSpace=wrap;rounded=0;" vertex="1" parent="1">
          <mxGeometry x="321" y="255" width="60" height="30" as="geometry" />
        </mxCell>
        <mxCell id="7TI13dxoVBn9YQDUtoPk-28" value="recommendation engine" style="text;html=1;strokeColor=none;fillColor=none;align=center;verticalAlign=middle;whiteSpace=wrap;rounded=0;" vertex="1" parent="1">
          <mxGeometry x="524" y="255" width="60" height="30" as="geometry" />
        </mxCell>
        <mxCell id="7TI13dxoVBn9YQDUtoPk-29" value="search and discover component" style="text;html=1;strokeColor=none;fillColor=none;align=center;verticalAlign=middle;whiteSpace=wrap;rounded=0;" vertex="1" parent="1">
          <mxGeometry x="390" y="255" width="107.75" height="30" as="geometry" />
        </mxCell>
        <mxCell id="7TI13dxoVBn9YQDUtoPk-33" value="Copyright authentication" style="text;html=1;strokeColor=none;fillColor=none;align=center;verticalAlign=middle;whiteSpace=wrap;rounded=0;" vertex="1" parent="1">
          <mxGeometry x="384" y="355" width="60" height="30" as="geometry" />
        </mxCell>
      </root>
    </mxGraphModel>
  </diagram>
</mxfile>
